<?xml version="1.0" encoding="UTF-8" standalone="no"?><!DOCTYPE svg PUBLIC "-//W3C//DTD SVG 1.1//EN" "http://www.w3.org/Graphics/SVG/1.1/DTD/svg11.dtd"><svg width="100%" height="100%" viewBox="0 0 900 900" version="1.1" xmlns="http://www.w3.org/2000/svg" xmlns:xlink="http://www.w3.org/1999/xlink" xml:space="preserve" xmlns:serif="http://www.serif.com/" style="fill-rule:evenodd;clip-rule:evenodd;stroke-linejoin:round;stroke-miterlimit:1.41421;"><g><path d="M471.375,440.763l0,-336.802c0,-11.45 -9.161,-20.611 -20.612,-20.611c-11.45,0 -20.611,9.161 -20.611,20.611l0,336.802c-47.787,9.619 -83.971,51.91 -83.971,102.598c0,50.688 36.184,92.979 83.971,102.598l0,149.927c0,11.451 9.161,20.611 20.611,20.611c11.451,0 20.612,-9.16 20.612,-20.611l0,-149.927c47.787,-9.619 83.971,-51.91 83.971,-102.598c0,-50.536 -36.031,-92.979 -83.971,-102.598Zm-20.612,165.958c-34.962,0 -63.36,-28.397 -63.36,-63.36c0,-34.963 28.398,-63.36 63.36,-63.36c34.963,0 63.361,28.397 63.361,63.36c0,34.963 -28.398,63.36 -63.361,63.36Z" style="fill:#777;fill-rule:nonzero;stroke:#777;stroke-width:25px;"/><path d="M219.002,267.935l0,-163.974c0,-11.45 -9.16,-20.611 -20.611,-20.611c-11.451,0 -20.611,9.161 -20.611,20.611l0,163.974c-47.788,9.618 -83.972,51.909 -83.972,102.597c0,50.689 36.184,92.98 83.972,102.598l0,322.756c0,11.451 9.16,20.611 20.611,20.611c11.451,0 20.611,-9.16 20.611,-20.611l0,-322.908c47.788,-9.619 83.972,-51.91 83.972,-102.598c0,-50.688 -36.184,-92.827 -83.972,-102.445Zm-20.611,165.958c-34.963,0 -63.36,-28.398 -63.36,-63.361c0,-34.962 28.397,-63.36 63.36,-63.36c34.963,0 63.36,28.398 63.36,63.36c0,34.963 -28.55,63.361 -63.36,63.361Z" style="fill:#777;fill-rule:nonzero;stroke:#777;stroke-width:25px;"/><path d="M722.22,267.935l0,-163.974c0,-11.45 -9.16,-20.611 -20.611,-20.611c-11.451,0 -20.611,9.161 -20.611,20.611l0,163.974c-47.788,9.618 -83.972,51.909 -83.972,102.597c0,50.689 36.184,92.98 83.972,102.598l0,322.909c0,11.45 9.16,20.611 20.611,20.611c11.451,0 20.611,-9.161 20.611,-20.611l0,-323.061c47.788,-9.619 83.972,-51.91 83.972,-102.598c0,-50.688 -36.032,-92.827 -83.972,-102.445Zm-20.611,165.958c-34.963,0 -63.36,-28.398 -63.36,-63.361c0,-34.962 28.397,-63.36 63.36,-63.36c34.963,0 63.36,28.398 63.36,63.36c0,34.963 -28.397,63.361 -63.36,63.361Z" style="fill:#777;fill-rule:nonzero;stroke:#777;stroke-width:25px;"/></g></svg>