<?xml version="1.0" encoding="UTF-8" standalone="no"?><!DOCTYPE svg PUBLIC "-//W3C//DTD SVG 1.1//EN" "http://www.w3.org/Graphics/SVG/1.1/DTD/svg11.dtd"><svg width="100%" height="100%" viewBox="0 0 900 900" version="1.1" xmlns="http://www.w3.org/2000/svg" xmlns:xlink="http://www.w3.org/1999/xlink" xml:space="preserve" xmlns:serif="http://www.serif.com/" style="fill-rule:evenodd;clip-rule:evenodd;stroke-linejoin:round;stroke-miterlimit:1.41421;"><g><path d="M632.29,827.339c-0.252,-0.01 -0.503,-0.01 -0.763,-0.027c0.252,0.008 0.504,0.017 0.763,0.027Z" style="fill:#777;fill-rule:nonzero;stroke:#777;stroke-width:1px;"/><path d="M257.677,285.393c-2.005,2.005 -4.083,4.127 -6.147,6.198c4.958,-4.723 10.022,-9.142 15.187,-13.301c-3.026,2.282 -6.047,4.613 -9.04,7.103Z" style="fill:#777;fill-rule:nonzero;stroke:#777;stroke-width:1px;"/><path d="M626.437,222.339c1.72,-1.56 3.32,-3.229 4.914,-4.906c-14.987,13.863 -35.021,22.248 -56.925,22.248c20.503,-0.008 37.845,-6.299 52.011,-17.342Z" style="fill:#777;fill-rule:nonzero;stroke:#777;stroke-width:1px;"/><path d="M637.246,394.759c-0.721,0.059 -1.441,0.093 -2.154,0.144c0.72,-0.051 1.442,-0.085 2.154,-0.144Z" style="fill:#777;fill-rule:nonzero;stroke:#777;stroke-width:1px;"/><path d="M602.738,394.449c-1.771,-0.168 -3.54,-0.31 -5.317,-0.52c1.768,0.209 3.538,0.361 5.317,0.52Z" style="fill:#777;fill-rule:nonzero;stroke:#777;stroke-width:1px;"/><path d="M662.682,304.288c-0.201,0.202 -0.384,0.318 -0.586,0.469c2.835,-1.09 5.635,-2.348 8.42,-3.689c-2.602,1.207 -5.218,2.289 -7.834,3.22Z" style="fill:#777;fill-rule:nonzero;stroke:#777;stroke-width:1px;"/><path d="M649.306,393.4c-0.261,0.042 -0.529,0.084 -0.789,0.116c0.26,-0.032 0.53,-0.074 0.789,-0.116Z" style="fill:#777;fill-rule:nonzero;stroke:#777;stroke-width:1px;"/><path d="M549.241,290.116c-1.585,-1.577 -4.746,-3.145 -6.331,-3.145c1.92,1.133 3.816,2.088 5.727,3.145l0.604,0Z" style="fill:#777;fill-rule:nonzero;stroke:#777;stroke-width:1px;"/><path d="M730.266,362.154c-0.62,0.411 -1.258,0.789 -1.878,1.19c0.628,-0.402 1.258,-0.788 1.878,-1.19Z" style="fill:#777;fill-rule:nonzero;stroke:#777;stroke-width:1px;"/><path d="M222.606,324.012c1.729,-2.255 3.481,-4.453 5.242,-6.632c-1.778,2.171 -3.515,4.385 -5.242,6.632Z" style="fill:#777;fill-rule:nonzero;stroke:#777;stroke-width:1px;"/><path d="M636.651,827.263c-0.109,0.008 -0.217,0.008 -0.334,0.017c0.108,0 0.217,-0.009 0.334,-0.017Z" style="fill:#777;fill-rule:nonzero;stroke:#777;stroke-width:1px;"/><path d="M662.682,818.055c0.907,-0.907 1.695,-1.912 2.508,-2.894c-5.786,5.275 -13.015,9.057 -20.731,10.91c6.508,-1.492 12.764,-4.226 18.223,-8.016Z" style="fill:#777;fill-rule:nonzero;stroke:#777;stroke-width:1px;"/><path d="M509.834,553.301c-2.993,-1.996 -6.182,-3.991 -9.434,-5.987c3.137,1.945 6.281,3.959 9.426,5.996l0.008,-0.009Z" style="fill:#777;fill-rule:nonzero;stroke:#777;stroke-width:1px;"/><path d="M574.827,390.013c-4.846,-1.107 -9.694,-2.306 -14.558,-3.757c4.864,1.442 9.721,2.666 14.558,3.757Z" style="fill:#777;fill-rule:nonzero;stroke:#777;stroke-width:1px;"/><path d="M589.177,392.754c-2.448,-0.394 -4.905,-0.829 -7.364,-1.317c2.457,0.479 4.914,0.931 7.364,1.317Z" style="fill:#777;fill-rule:nonzero;stroke:#777;stroke-width:1px;"/><path d="M628.315,827.019c-0.51,-0.068 -1.03,-0.108 -1.543,-0.193c0.513,0.076 1.033,0.125 1.543,0.193Z" style="fill:#777;fill-rule:nonzero;stroke:#777;stroke-width:1px;"/><path d="M641.28,826.734c-0.149,0.026 -0.293,0.041 -0.444,0.067c0.151,-0.026 0.303,-0.041 0.444,-0.067Z" style="fill:#777;fill-rule:nonzero;stroke:#777;stroke-width:1px;"/><path d="M512.97,269.628c-55.155,-33.093 -110.295,-42.543 -160.73,-33.093c0,0.235 -0.1,0.386 -0.159,0.562c50.621,-10.466 105.741,-0.091 160.889,32.531Z" style="fill:#777;fill-rule:nonzero;stroke:#777;stroke-width:1px;"/><path d="M733.463,243.882c-1.008,0.654 -2.014,1.334 -2.986,2.088c-1.576,1.585 -3.153,3.178 -4.722,6.331c2.348,-3.295 4.956,-6.054 7.708,-8.419Z" style="fill:#777;fill-rule:nonzero;stroke:#777;stroke-width:1px;"/><path d="M596.506,803.874c6.684,13.367 17.242,20.378 28.656,22.627c-11.262,-2.315 -21.812,-9.377 -28.656,-22.627Z" style="fill:#777;fill-rule:nonzero;stroke:#777;stroke-width:1px;"/><path d="M520.913,92.377c-1.082,0.763 -2.181,1.51 -3.212,2.306c-2.415,2.415 -4.67,5.032 -6.836,7.723c3.07,-3.605 6.425,-6.969 10.048,-10.029Z" style="fill:#777;fill-rule:nonzero;stroke:#777;stroke-width:1px;"/><path d="M750.947,346.856c0.806,-0.721 1.552,-1.5 2.348,-2.23c-1.459,1.258 -2.893,2.599 -4.37,3.815c0.672,-0.552 1.351,-1.04 2.022,-1.585Z" style="fill:#777;fill-rule:nonzero;stroke:#777;stroke-width:1px;"/><path d="M744.567,351.846c-2.181,1.71 -4.396,3.346 -6.609,4.956c2.22,-1.593 4.418,-3.261 6.609,-4.956Z" style="fill:#777;fill-rule:nonzero;stroke:#777;stroke-width:1px;"/><path d="M671.639,300.539c1.954,-0.965 3.9,-1.937 5.82,-3.027c-1.929,1.065 -3.874,2.106 -5.82,3.027Z" style="fill:#777;fill-rule:nonzero;stroke:#777;stroke-width:1px;"/><path d="M733.463,243.882c-2.752,2.365 -5.36,5.124 -7.708,8.42c-14.751,20.463 -30.962,35.365 -48.288,45.211c-1.92,1.091 -3.874,2.063 -5.819,3.028c-0.371,0.184 -0.747,0.352 -1.116,0.536c-2.785,1.342 -5.586,2.6 -8.42,3.69c-34.652,13.275 -73.195,7.648 -113.457,-14.643c-1.912,-1.057 -3.808,-2.013 -5.728,-3.144c-4.723,-3.153 -25.216,-15.775 -29.938,-17.351c-55.149,-32.613 -110.279,-42.988 -160.89,-32.53c-30.417,6.281 -59.198,20.11 -85.364,41.193c-5.166,4.16 -10.232,8.579 -15.188,13.3c-8.209,7.824 -16.11,16.436 -23.683,25.796c-1.761,2.181 -3.522,4.37 -5.242,6.634c-2.532,3.321 -5.04,6.717 -7.488,10.214c-31.506,44.137 42.561,86.688 72.516,42.578c39.373,-55.165 88.249,-70.931 141.845,-53.596c-26.793,48.858 -52.011,96.123 -85.12,162.333c-34.685,67.762 -108.736,121.341 -181.259,80.358c-51.979,-31.508 -97.693,44.137 -47.258,74.083c99.269,56.725 214.328,22.065 272.63,-52.011c1.577,0 4.721,1.56 6.298,1.56c48.859,17.351 111.907,61.463 130.825,77.254c18.894,15.741 51.986,96.123 70.914,137.082c6.836,13.25 17.393,20.31 28.657,22.626c0.536,0.109 1.065,0.236 1.601,0.327c0.512,0.085 1.032,0.126 1.543,0.193c1.066,0.134 2.14,0.236 3.212,0.293c0.252,0.017 0.503,0.017 0.764,0.026c1.341,0.042 2.682,0.026 4.025,-0.05c0.108,-0.008 0.217,-0.008 0.335,-0.017c1.4,-0.091 2.801,-0.243 4.192,-0.47c0.151,-0.025 0.303,-0.041 0.446,-0.066c1.073,-0.185 2.13,-0.412 3.178,-0.664c7.716,-1.852 14.943,-5.635 20.73,-10.91c11.934,-10.868 17.696,-28.002 8.546,-47.533c-22.082,-45.697 -59.896,-137.107 -88.257,-160.739c-17.309,-12.706 -46.452,-34.669 -75.66,-53.572c-3.144,-2.039 -6.29,-4.05 -9.426,-5.996c-7.515,-4.67 -14.943,-9.048 -22.098,-12.923c26.795,-50.434 53.597,-99.276 81.959,-148.134c4.864,1.451 9.719,2.65 14.558,3.758c2.332,0.536 4.655,0.973 6.986,1.425c2.457,0.478 4.914,0.923 7.364,1.317c2.75,0.444 5.501,0.847 8.244,1.174c1.778,0.218 3.548,0.352 5.317,0.52c10.901,1.031 21.694,1.173 32.354,0.453c0.722,-0.05 1.441,-0.084 2.154,-0.142c3.774,-0.301 7.532,-0.713 11.272,-1.233c0.261,-0.033 0.528,-0.084 0.789,-0.116c27.749,-3.985 54.351,-14.039 79.082,-30.065c0.62,-0.403 1.258,-0.781 1.878,-1.191c2.584,-1.71 5.141,-3.505 7.691,-5.35c2.223,-1.611 4.429,-3.246 6.608,-4.958c1.45,-1.141 2.918,-2.23 4.361,-3.412c1.476,-1.216 2.909,-2.558 4.37,-3.815c16.058,-13.854 31.163,-30.35 44.941,-49.781c29.147,-40.831 -30.697,-80.263 -64.778,-50.97Z" style="fill:#777;fill-rule:nonzero;stroke:#777;stroke-width:1px;"/><path d="M574.426,239.673c21.904,0 41.939,-8.379 56.925,-22.249c16.294,-15.079 26.619,-36.649 26.619,-61.279c0,-45.688 -37.832,-83.51 -83.544,-83.51c-20.271,0 -38.955,7.473 -53.513,19.742c-3.622,3.061 -6.986,6.415 -10.056,10.037c-12.378,14.593 -19.926,33.37 -19.926,53.74c0,47.289 37.805,83.519 83.495,83.519Z" style="fill:#777;fill-rule:nonzero;stroke:#777;stroke-width:1px;"/></g></svg>