<?xml version="1.0" encoding="UTF-8" standalone="no"?><!DOCTYPE svg PUBLIC "-//W3C//DTD SVG 1.1//EN" "http://www.w3.org/Graphics/SVG/1.1/DTD/svg11.dtd"><svg width="100%" height="100%" viewBox="0 0 900 900" version="1.1" xmlns="http://www.w3.org/2000/svg" xmlns:xlink="http://www.w3.org/1999/xlink" xml:space="preserve" xmlns:serif="http://www.serif.com/" style="fill-rule:evenodd;clip-rule:evenodd;stroke-linejoin:round;stroke-miterlimit:1.41421;"><path d="M152.826,517.187l0,-129.201l-51.687,0l0,129.201l51.687,0Zm258.411,178.303l0,-135.921c-45.48,-16.022 -77.525,-58.915 -77.525,-109.569c0,-51.166 32.045,-94.059 77.525,-109.569l0,-135.919l-271.326,0c-21.708,0 -38.763,17.055 -38.763,38.762l0,67.187l90.439,0c9.816,0 20.154,4.131 27.393,11.371c7.239,7.239 11.369,17.055 11.369,27.392l0,206.725c0,10.338 -4.13,20.154 -11.369,27.392c-7.239,7.237 -17.577,11.371 -27.393,11.371l-90.439,0l0,62.014c0,21.187 17.055,38.764 38.763,38.764l271.326,0Zm77.523,-245.49c0,-21.707 -17.575,-38.762 -38.762,-38.762c-21.708,0 -38.763,17.055 -38.763,38.762c0,20.674 16.022,37.729 36.697,38.762l4.151,0c20.135,-1.033 36.677,-18.088 36.677,-38.762Zm258.414,67.187l51.686,0l0,-129.201l-51.686,0l0,129.201Zm129.201,139.539c0,64.089 -52.198,116.287 -116.287,116.287l-620.177,0c-64.601,0 -116.287,-52.198 -116.287,-116.287l0,-100.777l0,-206.725l0,-105.95c0,-64.6 51.686,-116.287 116.287,-116.287l620.188,0c64.08,0 116.278,51.685 116.278,116.287l0,413.452l-0.002,0Zm-116.287,38.764c21.187,0 38.762,-17.577 38.762,-38.764l0,-62.014l-90.44,0c-10.336,0 -20.152,-4.132 -27.391,-11.371c-7.239,-7.239 -11.371,-17.055 -11.371,-27.392l0,-206.725c0,-10.338 4.132,-20.154 11.371,-27.392c7.239,-7.239 17.055,-11.371 27.391,-11.371l90.438,0l0,-67.187c0,-21.707 -17.575,-38.762 -38.762,-38.762l-271.326,0l0,135.919c44.959,16.022 77.525,58.917 77.525,109.569c0,50.652 -32.557,93.547 -77.525,109.569l0,135.921l271.328,0Z" style="fill:#777;fill-rule:nonzero;stroke:#777;stroke-width:1px;"/></svg>